<svg xmlns="http://www.w3.org/2000/svg" width="21" height="21" viewBox="0 0 21 21">
    <g fill="none" fill-rule="evenodd">
        <g fill="#5B5B5B" fill-rule="nonzero">
            <g>
                <path d="M17.265 2.831h-5.471c-.166-.467-.536-.843-1.003-1.009V.595H9.695v1.227c-.467.166-.837.542-1.003 1.009H3.221L.884 9.864v.09c0 1.511 1.23 2.741 2.742 2.741s2.742-1.24 2.742-2.742v-.089L4.39 3.921h4.301c.166.467.536.837 1.003 1.003v6.674H8.598v4.508l-3.29.548v2.658h9.87v-2.658l-3.29-.548v-4.508h-1.097V4.924c.467-.166.837-.536 1.003-1.003h4.3l-1.976 5.943v.09c0 1.511 1.23 2.741 2.742 2.741s2.742-1.23 2.742-2.742v-.089l-2.337-7.033zM3.626 11.598c-.715 0-1.325-.462-1.551-1.1h3.102c-.226.638-.836 1.1-1.551 1.1zm1.433-2.193H2.193l1.433-4.31 1.433 4.31zm4.636-6.032c0-.302.246-.542.548-.542.302 0 .548.24.548.542 0 .302-.246.548-.548.548-.302 0-.548-.246-.548-.548zm0 9.322h1.096v3.327H9.695v-3.327zm1.6 4.423l2.786.465v.632H6.404v-.632l2.788-.465h2.102zM16.86 5.096l1.433 4.309h-2.866l1.433-4.31zm0 6.502c-.715 0-1.325-.462-1.551-1.1h3.102c-.226.638-.836 1.1-1.551 1.1z" transform="translate(-931 -436) translate(931.283 436.283)"/>
            </g>
        </g>
    </g>
</svg>
