<svg xmlns="http://www.w3.org/2000/svg" width="34" height="32" viewBox="0 0 34 32">
    <g fill="#32C5FF">
        <path d="M22.177 9.697c-.344 0-.625.28-.625.625s.28.625.625.625c.346 0 .625-.28.625-.625 0-.346-.279-.625-.625-.625zM10.822 21.053c-.346 0-.625.28-.625.625s.279.625.625.625c.345 0 .625-.28.625-.625s-.28-.625-.625-.625z" transform="translate(.8)"/>
        <path d="M31.722 3.845c-.21-.049-.432.015-.585.168l-2.59 2.612h-1.243l-1.367-1.417v-1.26l2.554-2.591c.15-.154.212-.374.162-.584-.05-.21-.204-.378-.408-.447C27.604.11 26.932 0 26.25 0c-2.035 0-3.885.95-5.074 2.604-1.113 1.55-1.456 3.448-.964 5.265l-4.604 4.604-7.67-7.687v-1.51c0-.219-.115-.422-.303-.535L3.214.089c-.245-.148-.56-.109-.763.094L.684 1.95c-.203.203-.242.518-.094.764l2.651 4.42c.113.188.316.303.536.303h1.508l7.67 7.688L8.37 19.71c-1.817-.491-3.716-.148-5.266.966C1.448 21.865.5 23.714.5 25.75c0 .682.11 1.354.326 1.995.069.205.24.36.45.41.212.048.433-.015.586-.17l2.59-2.61h1.25l1.423 1.423v1.249l-2.612 2.59c-.153.153-.217.375-.168.586.049.21.204.381.41.45.64.217 1.312.326 1.995.326 2.035 0 3.884-.948 5.073-2.602 1.113-1.55 1.457-3.45.965-5.267l3.684-3.683.843.916-.387.387c-.244.244-.244.64 0 .884s.64.244.884 0l.35-.35 7.917 8.599.018.018c1.465 1.465 3.839 1.466 5.304 0 1.462-1.462 1.462-3.841 0-5.304l-.02-.018-8.612-7.901.347-.347c.244-.244.244-.64 0-.884s-.64-.244-.884 0l-.385.385-.918-.843 3.701-3.701c.526.14 1.07.212 1.62.212 3.446 0 6.249-2.804 6.249-6.25 0-.683-.11-1.354-.326-1.996-.069-.205-.24-.36-.45-.409zM5.987 6.371c-.118-.118-.277-.177-.443-.177H4.131L1.913 2.49 2.99 1.412l3.697 2.219v1.413c0 .166.066.325.183.442l7.853 7.871-.884.884-7.852-7.87zm15.897 12.191l8.642 7.928c.965.976.963 2.555-.009 3.527-.974.974-2.55.977-3.527.009l-7.943-8.627 2.837-2.837zm-.922-.846L18.2 20.478l-.844-.916 2.688-2.688.918.842zm5.287-6.466c-.546 0-1.084-.088-1.597-.26-.225-.076-.474-.018-.642.15L11.64 23.51c-.168.169-.227.417-.15.642.519 1.543.27 3.188-.683 4.515-.95 1.323-2.43 2.082-4.057 2.082-.183 0-.365-.01-.545-.029l1.985-1.97c.118-.117.185-.277.185-.443v-1.768c0-.166-.066-.325-.183-.442l-1.79-1.79c-.117-.117-.276-.183-.442-.183H4.192c-.166 0-.326.067-.443.185l-1.97 1.985c-.02-.18-.03-.362-.03-.545 0-1.628.76-3.107 2.083-4.057 1.326-.953 2.972-1.202 4.515-.682.225.076.474.017.642-.15l12.37-12.371c.168-.168.226-.417.15-.642-.519-1.542-.271-3.188.681-4.513.952-1.325 2.43-2.084 4.059-2.084.189 0 .376.01.561.031l-1.944 1.973c-.115.117-.18.274-.18.438v1.769c0 .162.064.317.176.434l1.727 1.789c.118.122.28.19.45.19h1.768c.166 0 .326-.066.443-.184l1.97-1.985c.02.18.029.362.029.545 0 2.757-2.243 5-5 5z" transform="translate(.8)"/>
        <path d="M19.968 11.647l-7.821 7.821c-.244.244-.244.64 0 .884s.64.244.884 0l7.821-7.82c.244-.245.244-.64 0-.885-.244-.244-.64-.244-.884 0zM27.866 28.25c.244.243.64.243.884-.001.244-.245.243-.64-.001-.884l-5.634-5.616c-.244-.243-.64-.243-.884.002-.244.244-.243.64.001.884l5.634 5.615z" transform="translate(.8)"/>
    </g>
</svg>
