<svg xmlns="http://www.w3.org/2000/svg" width="22" height="19" viewBox="0 0 22 19">
    <g fill="none" fill-rule="evenodd">
        <g fill="#5B5B5B" fill-rule="nonzero">
            <g>
                <path d="M10.208 17.833l-.36-.3C2.101 11.228 0 9.007 0 5.404 0 2.402 2.402 0 5.404 0c2.462 0 3.843 1.381 4.804 2.462C11.168 1.38 12.549 0 15.01 0c3.003 0 5.404 2.402 5.404 5.404 0 3.603-2.101 5.824-9.847 12.13l-.36.3zM5.404 1.201c-2.342 0-4.203 1.861-4.203 4.203 0 3.062 1.921 5.104 9.007 10.868 7.085-5.764 9.006-7.806 9.006-10.868 0-2.342-1.861-4.203-4.203-4.203-2.101 0-3.242 1.26-4.143 2.282l-.66.78-.66-.78C8.645 2.462 7.505 1.2 5.403 1.2z" transform="translate(-930 -393) translate(930.45 393.652)"/>
            </g>
        </g>
    </g>
</svg>
