<svg xmlns="http://www.w3.org/2000/svg" width="42" height="32" viewBox="0 0 42 32">
    <g fill="#32C5FF">
        <path d="M28.95 0H5.272C2.797 0 .782 2.014.782 4.49v14.49c0 2.47 2.006 4.481 4.474 4.49v6.576l9.45-6.576H28.95c2.476 0 4.49-2.014 4.49-4.49V4.49c0-2.476-2.014-4.49-4.49-4.49zm2.576 18.98c0 1.42-1.155 2.576-2.576 2.576H14.106L7.17 26.383v-4.827H5.272c-1.42 0-2.576-1.155-2.576-2.576V4.49c0-1.421 1.156-2.576 2.576-2.576H28.95c1.42 0 2.576 1.155 2.576 2.576v14.49z" transform="translate(.9)"/>
        <path d="M31.482 10.199h5.608c1.796 0 3.257 1.461 3.257 3.258V23.97c0 1.793-1.455 3.251-3.246 3.258V32l-6.857-4.771H19.91c-1.796 0-3.258-1.462-3.258-3.258v-2.352c0-.99 10.532 2.378 14.386-.445 3.14-2.3-.362-10.975.445-10.975zM18.04 23.971c0 1.03.838 1.87 1.869 1.87H30.68l5.033 3.501V25.84h1.377c1.03 0 1.869-.838 1.869-1.869V13.457c0-1.031-.839-1.87-1.87-1.87l-5.607-.053c-.387 0 2.345 8.192 0 9.788-3.902 2.656-13.496-.644-13.496 0M9.523 6.761L24.699 6.761 24.699 8.675 9.523 8.675zM9.523 10.844L24.699 10.844 24.699 12.757 9.523 12.757z" transform="translate(.9)"/>
        <path d="M9.523 14.926L24.699 14.926 24.699 16.839 9.523 16.839z" transform="translate(.9)"/>
    </g>
</svg>
