<svg xmlns="http://www.w3.org/2000/svg" width="152" height="35" viewBox="0 0 152 35">
    <g fill="#FFF" fill-rule="evenodd">
        <text font-family="Helvetica" font-size="12" letter-spacing=".038" transform="translate(.325 .25)">
            <tspan x="48.591" y="14">Qaynar xətt:</tspan>
        </text>
        <text font-family="Helvetica-Bold, Helvetica" font-size="12" font-weight="bold" letter-spacing=".038" transform="translate(.325 .25)">
            <tspan x="46.968" y="29">(+99412 555-66-77</tspan>
        </text>
        <path fill-rule="nonzero" d="M25.473 12.929V11.62c0-3.128-1.02-6.035-2.87-8.192C20.705 1.214 18.097 0 15.252 0h-.994c-2.844 0-5.452 1.214-7.348 3.429C5.06 5.586 4.04 8.493 4.04 11.62v1.308C1.794 13.093.01 15.12.01 17.6v2.043c0 2.578 1.936 4.678 4.313 4.678h2.43c.434 0 .79-.385.79-.857v-9.693c0-.471-.356-.857-.79-.857H5.62v-1.293c0-5.65 3.714-9.907 8.633-9.907h.994c4.926 0 8.633 4.257 8.633 9.907v1.293h-1.133c-.434 0-.79.386-.79.857v9.686c0 .472.356.857.79.857h1.107c-.323 4.472-3.161 5.507-4.478 5.743-.362-1.207-1.41-2.078-2.64-2.078H14.76c-1.528 0-2.772 1.35-2.772 3.007S13.232 34 14.76 34h1.982c1.277 0 2.35-.943 2.673-2.214.646-.1 1.666-.35 2.68-.993 1.43-.907 3.122-2.757 3.345-6.486 2.26-.15 4.05-2.186 4.05-4.671v-2.043c.007-2.472-1.771-4.507-4.017-4.664zM5.976 22.6h-1.64c-1.508 0-2.733-1.329-2.733-2.964v-2.043c0-1.636 1.225-2.964 2.733-2.964h1.64V22.6zm10.766 9.686H14.76c-.659 0-1.192-.579-1.192-1.293s.533-1.293 1.192-1.293h1.982c.658 0 1.192.579 1.192 1.293s-.534 1.293-1.192 1.293zm11.174-12.65c0 1.635-1.224 2.964-2.732 2.964h-1.64v-7.971h1.64c1.508 0 2.732 1.328 2.732 2.964v2.043z" transform="translate(.325 .25)"/>
    </g>
</svg>
