<svg xmlns="http://www.w3.org/2000/svg" width="34" height="34" viewBox="0 0 34 34">
    <path d="M29.43 12.93v-1.307c0-3.129-1.157-6.036-3.254-8.193-2.15-2.214-5.104-3.428-8.328-3.428H16.72c-3.224 0-6.18 1.214-8.329 3.428C6.295 5.587 5.14 8.494 5.14 11.623v1.307C2.594 13.094.57 15.123.57 17.602v2.042c0 2.579 2.194 4.679 4.888 4.679h2.754c.493 0 .896-.386.896-.857v-9.693c0-.471-.403-.857-.896-.857H6.93v-1.293c0-5.65 4.209-9.907 9.783-9.907h1.127c5.582 0 9.784 4.257 9.784 9.907v1.293H26.34c-.492 0-.895.386-.895.857v9.686c0 .471.403.857.895.857h1.254c-.366 4.471-3.582 5.507-5.075 5.743-.41-1.207-1.597-2.079-2.992-2.079h-2.239c-1.731 0-3.142 1.35-3.142 3.007s1.41 3.015 3.142 3.015h2.246c1.448 0 2.664-.943 3.03-2.215.732-.1 1.888-.35 3.038-.993 1.619-.907 3.537-2.757 3.79-6.485 2.56-.15 4.59-2.186 4.59-4.672v-2.043c.008-2.471-2.007-4.507-4.552-4.664zM7.333 22.602H5.474c-1.709 0-3.097-1.33-3.097-2.965v-2.043c0-1.635 1.388-2.964 3.097-2.964h1.859v7.972zm12.201 9.685h-2.246c-.746 0-1.35-.578-1.35-1.293 0-.714.604-1.292 1.35-1.292h2.246c.747 0 1.351.578 1.351 1.292 0 .715-.604 1.293-1.35 1.293zM32.2 19.637c0 1.636-1.388 2.965-3.097 2.965h-1.859V14.63h1.859c1.709 0 3.097 1.329 3.097 2.964v2.043z"/>
</svg>
