<svg xmlns="http://www.w3.org/2000/svg" width="37" height="37" viewBox="0 0 37 37">
    <g fill="#FFF">
        <path d="M34.501 12.387h-3.967C30.454 5.54 24.862 0 18 0 11.138 0 5.547 5.54 5.473 12.387H1.506c-1.403.11-1.55 1.315-1.477 1.749L3.527 34.75c.124.72.749 1.249 1.476 1.249h25.994c.734 0 1.359-.529 1.476-1.249l3.505-20.615c.073-.434-.103-1.646-1.477-1.75zM18 2.997c5.209 0 9.448 4.196 9.529 9.383H8.471c.08-5.187 4.32-9.382 9.529-9.382zm11.733 30.005H6.274L3.277 15.384h29.446l-2.99 17.618z" transform="matrix(-1 0 0 1 36.675 .25)"/>
        <path d="M11.748 21.945h12.497c.83 0 1.499-.668 1.499-1.498s-.669-1.5-1.5-1.5H11.749c-.83 0-1.499.67-1.499 1.5s.676 1.498 1.499 1.498zM11.748 29.44h12.497c.83 0 1.499-.67 1.499-1.5s-.669-1.498-1.5-1.498H11.749c-.83 0-1.499.668-1.499 1.498s.676 1.5 1.499 1.5z" transform="matrix(-1 0 0 1 36.675 .25)"/>
    </g>
</svg>
