<svg xmlns="http://www.w3.org/2000/svg" width="48" height="34" viewBox="0 0 48 34">
    <path fill="#32C5FF" d="M38.456 24.448c-1.147 0-2.237.45-3.059 1.261-.822.822-1.28 1.893-1.28 3.04s.449 2.217 1.28 3.04c.832.812 1.912 1.261 3.059 1.261 2.35 0 4.262-1.93 4.262-4.301 0-2.37-1.911-4.301-4.262-4.301zm0 6.69c-1.32 0-2.428-1.09-2.428-2.39 0-1.299 1.109-2.389 2.428-2.389 1.3 0 2.35 1.07 2.35 2.39 0 1.319-1.05 2.39-2.35 2.39zm1.108-21.018c-.172-.162-.401-.248-.64-.248h-4.903c-.526 0-.956.43-.956.956v7.837c0 .526.43.956.956.956h7.78c.526 0 .956-.43.956-.956v-5.247c0-.268-.115-.526-.316-.707l-2.877-2.59zm1.281 7.59h-5.868v-5.936h3.574l2.294 2.065v3.87zm-25.73 6.738c-1.147 0-2.236.45-3.058 1.261-.822.822-1.281 1.893-1.281 3.04s.449 2.217 1.28 3.04c.832.812 1.912 1.261 3.06 1.261 2.35 0 4.262-1.93 4.262-4.301 0-2.37-1.912-4.301-4.263-4.301zm0 6.69c-1.319 0-2.428-1.09-2.428-2.39 0-1.299 1.11-2.389 2.428-2.389 1.3 0 2.351 1.07 2.351 2.39 0 1.319-1.051 2.39-2.35 2.39zM8.74 25.623H6.819v-2.542c0-.526-.43-.956-.956-.956s-.956.43-.956.956v3.498c0 .526.43.956.956.956H8.74c.526 0 .956-.43.956-.956 0-.525-.43-.956-.956-.956zm4.846-5.209c0-.525-.43-.955-.956-.955H1.036c-.525 0-.956.43-.956.955 0 .526.43.956.956.956H12.63c.526 0 .956-.42.956-.956zm-10.61-3.45l11.594.067c.526 0 .956-.42.966-.946.01-.536-.42-.966-.947-.966l-11.593-.067h-.01c-.526 0-.956.42-.956.947-.01.535.42.965.947.965zm1.95-4.34H16.52c.526 0 .956-.43.956-.955 0-.526-.43-.956-.956-.956H4.926c-.525 0-.955.43-.955.956s.43.956.955.956zm41.74-1.29l-6.844-5.668c-.172-.143-.382-.22-.611-.22h-8.048v-3.44c0-.526-.43-.956-.956-.956H5.863c-.526 0-.956.43-.956.956v6.996c0 .526.43.956.956.956s.956-.43.956-.956v-6.04H29.26v22.661h-7.838c-.525 0-.955.43-.955.956s.43.956.955.956h11.67c.526 0 .956-.43.956-.956 0-.525-.43-.956-.955-.956h-1.922V7.358h7.704l6.232 5.162-.067 13.084h-.994c-.526 0-.956.43-.956.956s.43.956.956.956h1.94c.526 0 .956-.42.956-.946l.077-14.49c-.01-.287-.134-.564-.354-.746z"/>
</svg>
